<svg width="422" height="50" viewBox="0 0 422 50" fill="none" xmlns="http://www.w3.org/2000/svg">
<path d="M39.8467 45.5723C38.6829 46.0801 37.625 46.5562 36.6729 47.0005C35.7419 47.4448 34.5146 47.9103 32.9912 48.397C31.7005 48.799 30.2935 49.1375 28.77 49.4126C27.2677 49.7088 25.6068 49.8569 23.7871 49.8569C20.3594 49.8569 17.2384 49.3809 14.4243 48.4287C11.6313 47.4554 9.19808 45.9425 7.12451 43.8901C5.09326 41.88 3.50635 39.3304 2.36377 36.2412C1.22119 33.1309 0.649902 29.5233 0.649902 25.4185C0.649902 21.5252 1.20003 18.0446 2.30029 14.9766C3.40055 11.9085 4.98747 9.31657 7.06104 7.20068C9.07113 5.14827 11.4938 3.58252 14.3291 2.50342C17.1855 1.42432 20.3488 0.884766 23.8188 0.884766C26.3579 0.884766 28.8864 1.19157 31.4043 1.80518C33.9434 2.41878 36.7575 3.49788 39.8467 5.04248V12.501H39.3706C36.7681 10.3216 34.1867 8.7347 31.6265 7.74023C29.0662 6.74577 26.3262 6.24854 23.4062 6.24854C21.0153 6.24854 18.8571 6.63997 16.9316 7.42285C15.0273 8.18457 13.3241 9.38005 11.8218 11.0093C10.3618 12.5962 9.21924 14.6063 8.39404 17.0396C7.59001 19.4517 7.18799 22.2446 7.18799 25.4185C7.18799 28.7404 7.63232 31.5968 8.521 33.9878C9.43083 36.3787 10.5946 38.3254 12.0122 39.8276C13.4933 41.3934 15.2178 42.5571 17.1855 43.3188C19.1745 44.0594 21.2692 44.4297 23.4697 44.4297C26.4954 44.4297 29.3307 43.9113 31.9756 42.8745C34.6204 41.8377 37.096 40.2826 39.4023 38.209H39.8467V45.5723ZM124.857 49H98.1334V1.7417H104.418V43.4141H128.031L124.857 49ZM185.524 24.9106C185.524 30.0522 187.206 34.5168 190.571 38.3042C193.871 42.1551 198.071 44.0806 203.171 44.0806C206.873 44.0806 210.47 42.8005 213.962 40.2402C218.638 36.7913 220.976 31.9777 220.976 25.7993C220.976 20.8905 219.431 16.7116 216.342 13.2627C212.957 9.47526 208.524 7.58154 203.044 7.58154C198.304 7.58154 194.21 9.27425 190.761 12.6597C187.27 16.1086 185.524 20.1922 185.524 24.9106ZM178.859 24.9106C178.859 18.4995 181.366 12.9771 186.381 8.34326C191.163 3.94222 196.527 1.7417 202.472 1.7417C208.587 1.7417 214.025 3.57194 218.786 7.23242C224.605 11.6335 227.514 17.7378 227.514 25.5454C227.514 31.5334 225.303 36.9924 220.881 41.9224C216.099 47.1486 210.343 49.7617 203.615 49.7617C196.992 49.7617 191.311 47.6141 186.571 43.3188C181.43 38.5581 178.859 32.422 178.859 24.9106ZM320.237 30.0205C320.237 33.4482 319.856 36.4422 319.094 39.0024C318.353 41.5415 317.126 43.6574 315.412 45.3501C313.783 46.9582 311.879 48.1325 309.7 48.873C307.52 49.6136 304.981 49.9839 302.082 49.9839C299.12 49.9839 296.539 49.5924 294.338 48.8096C292.138 48.0267 290.286 46.8735 288.784 45.3501C287.07 43.6151 285.832 41.5203 285.071 39.0659C284.33 36.6115 283.96 33.5964 283.96 30.0205V1.7417H290.244V30.3379C290.244 32.8981 290.413 34.9188 290.752 36.3999C291.111 37.881 291.704 39.2246 292.529 40.4307C293.46 41.806 294.719 42.8428 296.306 43.541C297.914 44.2393 299.839 44.5884 302.082 44.5884C304.346 44.5884 306.272 44.2498 307.859 43.5728C309.446 42.8745 310.715 41.8271 311.667 40.4307C312.492 39.2246 313.074 37.8493 313.413 36.3047C313.773 34.7389 313.952 32.8029 313.952 30.4966V1.7417H320.237V30.0205ZM421.592 25.4185C421.592 29.7137 420.651 33.6069 418.767 37.0981C416.906 40.5894 414.419 43.2977 411.309 45.2231C409.151 46.5562 406.739 47.5189 404.073 48.1113C401.428 48.7038 397.937 49 393.599 49H381.665V1.7417H393.472C398.085 1.7417 401.745 2.08024 404.454 2.75732C407.183 3.41325 409.489 4.32308 411.372 5.48682C414.589 7.49691 417.096 10.1735 418.894 13.5166C420.693 16.8597 421.592 20.827 421.592 25.4185ZM415.022 25.3232C415.022 21.6204 414.377 18.4995 413.086 15.9604C411.796 13.4214 409.87 11.4219 407.31 9.96191C405.448 8.90397 403.47 8.17399 401.375 7.77197C399.28 7.3488 396.773 7.13721 393.853 7.13721H387.95V43.6045H393.853C396.879 43.6045 399.513 43.3823 401.756 42.938C404.02 42.4937 406.093 41.6685 407.976 40.4624C410.325 38.9601 412.081 36.9818 413.245 34.5273C414.43 32.0729 415.022 29.0049 415.022 25.3232Z" fill="#B7B7B7"/>
</svg>
