<svg width="240" height="64" viewBox="0 0 240 64" fill="none" xmlns="http://www.w3.org/2000/svg">
<g clip-path="url(#clip0_23_29)">
<path d="M14.2562 5.43601C14.4205 5.2792 14.5923 5.12986 14.779 4.99545C19.7974 1.73982 25.5851 0 32.0075 0C38.0117 0 43.6425 1.66515 48.4369 4.54743C48.7879 4.74904 49.7438 5.40614 50.2292 5.99603C45.5916 0.888578 31.9701 11.8577 31.9701 11.8577C27.2653 8.22121 22.9265 5.74962 19.7078 4.86104C17.0044 4.12181 15.1449 4.74157 14.2562 5.43601ZM55.4716 10.2597C55.3372 10.1029 55.1804 9.96103 55.0385 9.79676C53.8735 8.51243 52.4322 8.20628 51.1328 8.28095C49.9454 8.66177 44.4864 10.6256 37.7578 16.98C37.7578 16.98 45.3302 24.3426 49.9753 31.8768C54.6128 39.4036 57.3834 45.3249 55.6808 53.5312C61.0427 47.6397 64.0149 39.9636 64 31.9963C64 23.6108 60.7739 15.9645 55.4716 10.2597ZM43.9113 35.0876C40.9615 31.7872 37.9071 28.5764 34.7631 25.4626C33.8819 24.589 32.9484 23.6705 31.9627 22.7222C31.9627 22.7222 30.484 24.2007 28.5722 26.1421V26.1346C26.1153 28.6212 22.9265 31.8544 21.1566 33.751C18.0051 37.1112 8.97642 47.6621 8.47607 53.5835C8.47607 53.5835 6.46721 48.8942 10.8733 38.067C13.7484 30.9807 22.4485 20.3626 26.0779 16.8979C26.0779 16.8979 22.7547 13.254 18.5951 10.7301L18.5652 10.7227C18.5652 10.7227 18.5129 10.6853 18.4532 10.648C16.4518 9.45327 14.2562 8.52736 12.1578 8.40042C10.0145 8.55723 8.64784 10.1328 8.64784 10.1328C3.08424 16.0392 -0.0149431 23.8721 -7.3002e-06 32.0037C-7.3002e-06 49.6782 14.3235 64 32.0075 64C41.3872 64 49.8184 59.9603 55.6808 53.5237C55.6808 53.5163 55.0086 49.2974 50.7071 43.2416C49.684 41.8304 45.9949 37.4099 43.9113 35.0876Z" fill="#107C10"/>
</g>
<g clip-path="url(#clip1_23_29)">
<path d="M239.973 54.9831L222.702 31.4307L238.446 10.0329H232.566L219.761 27.4913L206.958 10.0329H201.079L216.795 31.4307L199.58 54.9831H205.489L219.763 35.4834L234.095 54.9831H239.973ZM122.441 54.9831L105.227 31.4307L120.943 10.0329H115.064L102.259 27.4902L89.455 10.0329H83.5474L99.2921 31.4307L82.0209 54.9831H87.9285L102.26 35.4834L116.534 54.9831H122.441Z" fill="#B7B7B7"/>
<path d="M143.104 50.3066H129.932V33.9527H143.104C148.135 33.9527 154.072 35.3136 154.072 41.7761C154.072 49.1732 147.203 50.3066 143.104 50.3066ZM129.932 14.7372H143.104C146.666 14.7372 152.63 15.6452 152.63 21.8791C152.63 26.6122 149.153 29.4183 143.104 29.4183H129.932V14.7372ZM155.23 33.1313C154.351 32.3604 153.36 31.7297 152.291 31.2609C155.541 29.4749 157.661 26.1593 157.661 22.2476C157.661 19.3849 156.616 10.0041 143.104 10.0041H124.929V29.3916H118.881C118.06 30.4117 116.279 32.8771 115.601 33.8972H124.959V54.9553H143.106C152.999 54.9553 159.132 49.9391 159.132 41.8338C159.132 38.3195 157.775 35.3147 155.231 33.1324L155.23 33.1313ZM182.79 51.2145C173.18 51.2145 166.452 43.5044 166.452 32.4786C166.452 21.455 173.18 13.7459 182.79 13.7459C192.373 13.7459 199.043 21.4539 199.043 32.4797C199.043 43.5332 192.372 51.2135 182.79 51.2135V51.2145ZM182.79 9.01282C170.154 9.01282 161.364 18.6767 161.364 32.5075C161.364 46.3383 170.154 56.0032 182.79 56.0032C195.341 56.0032 204.131 46.3383 204.131 32.5075C204.131 18.6489 195.34 9.01282 182.79 9.01282Z" fill="#B7B7B7"/>
</g>
<defs>
<clipPath id="clip0_23_29">
<rect width="64" height="64" fill="white"/>
</clipPath>
<clipPath id="clip1_23_29">
<rect width="158" height="47" fill="white" transform="translate(82 9)"/>
</clipPath>
</defs>
</svg>
